<svg id="visual" viewBox="0 0 960 300" width="960" height="300"
    xmlns="http://www.w3.org/2000/svg"
    xmlns:xlink="http://www.w3.org/1999/xlink" version="1.1">
    <rect x="0" y="0" width="960" height="300" fill="#202731"></rect>
    <path d="M0 68L16 70C32 72 64 76 96 82C128 88 160 96 192 97.7C224 99.3 256 94.7 288 91.2C320 87.7 352 85.3 384 81.2C416 77 448 71 480 71.7C512 72.3 544 79.7 576 82.3C608 85 640 83 672 84.3C704 85.7 736 90.3 768 91.8C800 93.3 832 91.7 864 89.3C896 87 928 84 944 82.5L960 81L960 0L944 0C928 0 896 0 864 0C832 0 800 0 768 0C736 0 704 0 672 0C640 0 608 0 576 0C544 0 512 0 480 0C448 0 416 0 384 0C352 0 320 0 288 0C256 0 224 0 192 0C160 0 128 0 96 0C64 0 32 0 16 0L0 0Z" fill="#601937"></path>
    <path d="M0 78L16 76.7C32 75.3 64 72.7 96 69C128 65.3 160 60.7 192 58C224 55.3 256 54.7 288 57.8C320 61 352 68 384 70.5C416 73 448 71 480 72.3C512 73.7 544 78.3 576 80.7C608 83 640 83 672 79.5C704 76 736 69 768 69.5C800 70 832 78 864 79.2C896 80.3 928 74.7 944 71.8L960 69L960 0L944 0C928 0 896 0 864 0C832 0 800 0 768 0C736 0 704 0 672 0C640 0 608 0 576 0C544 0 512 0 480 0C448 0 416 0 384 0C352 0 320 0 288 0C256 0 224 0 192 0C160 0 128 0 96 0C64 0 32 0 16 0L0 0Z" fill="#811d3d"></path>
    <path d="M0 39L16 43.2C32 47.3 64 55.7 96 56.2C128 56.7 160 49.3 192 45C224 40.7 256 39.3 288 43.2C320 47 352 56 384 58.5C416 61 448 57 480 54.8C512 52.7 544 52.3 576 50.8C608 49.3 640 46.7 672 46.8C704 47 736 50 768 50.3C800 50.7 832 48.3 864 48.2C896 48 928 50 944 51L960 52L960 0L944 0C928 0 896 0 864 0C832 0 800 0 768 0C736 0 704 0 672 0C640 0 608 0 576 0C544 0 512 0 480 0C448 0 416 0 384 0C352 0 320 0 288 0C256 0 224 0 192 0C160 0 128 0 96 0C64 0 32 0 16 0L0 0Z" fill="#a2233e"></path>
    <path d="M0 46L16 46C32 46 64 46 96 44.3C128 42.7 160 39.3 192 38.7C224 38 256 40 288 39.2C320 38.3 352 34.7 384 32C416 29.3 448 27.7 480 30C512 32.3 544 38.7 576 42.5C608 46.3 640 47.7 672 45.5C704 43.3 736 37.7 768 35C800 32.3 832 32.7 864 33.3C896 34 928 35 944 35.5L960 36L960 0L944 0C928 0 896 0 864 0C832 0 800 0 768 0C736 0 704 0 672 0C640 0 608 0 576 0C544 0 512 0 480 0C448 0 416 0 384 0C352 0 320 0 288 0C256 0 224 0 192 0C160 0 128 0 96 0C64 0 32 0 16 0L0 0Z" fill="#c12e3a"></path>
    <path d="M0 30L16 27.8C32 25.7 64 21.3 96 20C128 18.7 160 20.3 192 21.8C224 23.3 256 24.7 288 24.3C320 24 352 22 384 21.8C416 21.7 448 23.3 480 22.8C512 22.3 544 19.7 576 17C608 14.3 640 11.7 672 10.3C704 9 736 9 768 10.7C800 12.3 832 15.7 864 15.3C896 15 928 11 944 9L960 7L960 0L944 0C928 0 896 0 864 0C832 0 800 0 768 0C736 0 704 0 672 0C640 0 608 0 576 0C544 0 512 0 480 0C448 0 416 0 384 0C352 0 320 0 288 0C256 0 224 0 192 0C160 0 128 0 96 0C64 0 32 0 16 0L0 0Z" fill="#dd3f31"></path>
</svg>