<svg id="visual" viewBox="0 0 960 540" width="960" height="540"
    xmlns="http://www.w3.org/2000/svg"
    xmlns:xlink="http://www.w3.org/1999/xlink" version="1.1">
    <rect x="0" y="0" width="960" height="540" fill="#202731"></rect>
    <path d="M0 123L16 126.7C32 130.3 64 137.7 96 148.5C128 159.3 160 173.7 192 176.5C224 179.3 256 170.7 288 164.3C320 158 352 154 384 146.5C416 139 448 128 480 129.2C512 130.3 544 143.7 576 148.7C608 153.7 640 150.3 672 152.7C704 155 736 163 768 165.7C800 168.3 832 165.7 864 161.7C896 157.7 928 152.3 944 149.7L960 147L960 0L944 0C928 0 896 0 864 0C832 0 800 0 768 0C736 0 704 0 672 0C640 0 608 0 576 0C544 0 512 0 480 0C448 0 416 0 384 0C352 0 320 0 288 0C256 0 224 0 192 0C160 0 128 0 96 0C64 0 32 0 16 0L0 0Z" fill="#601937"></path>
    <path d="M0 142L16 139.5C32 137 64 132 96 125.2C128 118.3 160 109.7 192 104.8C224 100 256 99 288 104.8C320 110.7 352 123.3 384 127.7C416 132 448 128 480 130.3C512 132.7 544 141.3 576 145.7C608 150 640 150 672 143.7C704 137.3 736 124.7 768 125.7C800 126.7 832 141.3 864 143.3C896 145.3 928 134.7 944 129.3L960 124L960 0L944 0C928 0 896 0 864 0C832 0 800 0 768 0C736 0 704 0 672 0C640 0 608 0 576 0C544 0 512 0 480 0C448 0 416 0 384 0C352 0 320 0 288 0C256 0 224 0 192 0C160 0 128 0 96 0C64 0 32 0 16 0L0 0Z" fill="#811d3d"></path>
    <path d="M0 72L16 79.3C32 86.7 64 101.3 96 102.2C128 103 160 90 192 82.2C224 74.3 256 71.7 288 78.5C320 85.3 352 101.7 384 106.2C416 110.7 448 103.3 480 99.3C512 95.3 544 94.7 576 91.8C608 89 640 84 672 84.3C704 84.7 736 90.3 768 91C800 91.7 832 87.3 864 87.2C896 87 928 91 944 93L960 95L960 0L944 0C928 0 896 0 864 0C832 0 800 0 768 0C736 0 704 0 672 0C640 0 608 0 576 0C544 0 512 0 480 0C448 0 416 0 384 0C352 0 320 0 288 0C256 0 224 0 192 0C160 0 128 0 96 0C64 0 32 0 16 0L0 0Z" fill="#a2233e"></path>
    <path d="M0 84L16 83.8C32 83.7 64 83.3 96 80.2C128 77 160 71 192 69.8C224 68.7 256 72.3 288 71C320 69.7 352 63.3 384 58.7C416 54 448 51 480 55C512 59 544 70 576 77C608 84 640 87 672 83.2C704 79.3 736 68.7 768 63.8C800 59 832 60 864 61.3C896 62.7 928 64.3 944 65.2L960 66L960 0L944 0C928 0 896 0 864 0C832 0 800 0 768 0C736 0 704 0 672 0C640 0 608 0 576 0C544 0 512 0 480 0C448 0 416 0 384 0C352 0 320 0 288 0C256 0 224 0 192 0C160 0 128 0 96 0C64 0 32 0 16 0L0 0Z" fill="#c12e3a"></path>
    <path d="M0 55L16 51.2C32 47.3 64 39.7 96 37.3C128 35 160 38 192 40.7C224 43.3 256 45.7 288 44.8C320 44 352 40 384 39.7C416 39.3 448 42.7 480 42C512 41.3 544 36.7 576 31.8C608 27 640 22 672 19.7C704 17.3 736 17.7 768 20.7C800 23.7 832 29.3 864 28.7C896 28 928 21 944 17.5L960 14L960 0L944 0C928 0 896 0 864 0C832 0 800 0 768 0C736 0 704 0 672 0C640 0 608 0 576 0C544 0 512 0 480 0C448 0 416 0 384 0C352 0 320 0 288 0C256 0 224 0 192 0C160 0 128 0 96 0C64 0 32 0 16 0L0 0Z" fill="#dd3f31"></path>
</svg>